<?xml version="1.0" encoding="UTF-8"?>
<svg width="50px" height="33px" viewBox="0 0 50 33" version="1.1" xmlns="http://www.w3.org/2000/svg" xmlns:xlink="http://www.w3.org/1999/xlink">
    <!-- Generator: sketchtool 47.1 (45422) - http://www.bohemiancoding.com/sketch -->
    <title>217E48AD-5737-4595-8B48-B1C34F384953</title>
    <desc>Created with sketchtool.</desc>
    <defs></defs>
    <g id="Code-Test" stroke="none" stroke-width="1" fill="none" fill-rule="evenodd">
        <g id="Desktop" transform="translate(-268.000000, -1901.000000)" fill="#F56A75">
            <g id="Testimonial" transform="translate(175.000000, 1829.000000)">
                <path d="M109.44043,72 L109.44043,74.6025391 C105.716453,76.5491634 103.050464,78.5803931 101.442383,80.6962891 C99.8343019,82.8121851 99.0302734,85.1184771 99.0302734,87.6152344 C99.0302734,89.0963616 99.2418599,90.1119764 99.6650391,90.6621094 C100.0459,91.2545603 100.51139,91.5507812 101.061523,91.5507812 C101.611656,91.5507812 102.352209,91.3920914 103.283203,91.074707 C104.214197,90.7573226 105.060543,90.5986328 105.822266,90.5986328 C107.5573,90.5986328 109.070143,91.2439714 110.36084,92.534668 C111.651536,93.8253645 112.296875,95.4016834 112.296875,97.2636719 C112.296875,99.294932 111.514005,101.04052 109.948242,102.500488 C108.382479,103.960457 106.435884,104.69043 104.108398,104.69043 C101.273098,104.69043 98.7129021,103.463228 96.4277344,101.008789 C94.1425667,98.5543497 93,95.5286638 93,91.9316406 C93,87.6998486 94.4070497,83.7537618 97.2211914,80.0932617 C100.035333,76.4327616 104.108372,73.7350347 109.44043,72 Z M139.71875,72.1904297 L139.71875,74.6025391 C135.44464,77.0569784 132.630541,79.2574772 131.276367,81.2041016 C129.922194,83.1507259 129.245117,85.4358593 129.245117,88.0595703 C129.245117,89.2444721 129.477862,90.1331351 129.943359,90.7255859 C130.408856,91.3180368 130.895505,91.6142578 131.40332,91.6142578 C131.868817,91.6142578 132.567053,91.4449887 133.498047,91.1064453 C134.429041,90.767902 135.360021,90.5986328 136.291016,90.5986328 C138.02605,90.5986328 139.538893,91.2228128 140.82959,92.4711914 C142.120286,93.71957 142.765625,95.2535716 142.765625,97.0732422 C142.765625,99.1468203 141.951017,100.945305 140.321777,102.46875 C138.692537,103.992195 136.693046,104.753906 134.323242,104.753906 C131.530259,104.753906 129.012381,103.547864 126.769531,101.135742 C124.526681,98.7236208 123.405273,95.7190935 123.405273,92.1220703 C123.405273,87.6786887 124.822902,83.6268087 127.658203,79.9663086 C130.493504,76.3058085 134.513646,73.7138748 139.71875,72.1904297 Z" id="icon/solid/speach-marks"></path>
            </g>
        </g>
    </g>
</svg>