<svg xmlns="http://www.w3.org/2000/svg" width="120" height="50" viewBox="0 0 120 50">
    <g fill="none" fill-rule="evenodd">
        <path fill="#F56A75" fill-rule="nonzero" d="M41.981 37.573l-1.561-8.432a1.083 1.083 0 0 0-.612-.79 1.045 1.045 0 0 0-.984.061l-7.201 4.43c-.422.26-.614.78-.466 1.259.148.479.598.79 1.09.756l2.812-.2c-2.686 3.683-6.728 5.195-11.365 5.583V16.117h2.316c.373.283.832.457 1.334.457 1.24 0 2.245-1.026 2.245-2.291 0-1.267-1.006-2.292-2.245-2.292-.502 0-.962.174-1.335.458h-2.315V9.136a5.008 5.008 0 0 0 2.19-4.151C25.884 2.237 23.693 0 21 0c-2.693 0-4.884 2.237-4.884 4.985 0 1.731.872 3.257 2.19 4.151v3.313H15.99a2.197 2.197 0 0 0-1.334-.458c-1.24 0-2.246 1.026-2.246 2.292 0 1.265 1.006 2.29 2.246 2.29.5 0 .96-.173 1.333-.456h2.316V40.24c-4.637-.388-8.68-1.9-11.365-5.583l2.813.2c.49.035.941-.277 1.089-.756a1.096 1.096 0 0 0-.466-1.258l-7.2-4.43a1.045 1.045 0 0 0-.985-.061c-.319.145-.547.44-.612.79L.02 37.573c-.092.493.16.986.609 1.192a1.05 1.05 0 0 0 1.279-.325l1.68-2.212c3.284 5.428 8.449 9.973 14.406 11.153l2.254 2.3a1.05 1.05 0 0 0 1.505 0l2.254-2.3c5.957-1.18 11.122-5.725 14.407-11.153l1.68 2.212c.302.397.83.532 1.279.325.449-.206.7-.699.61-1.193zM21.001 3.667c.71 0 1.29.591 1.29 1.318 0 .726-.58 1.317-1.29 1.317-.713 0-1.292-.591-1.292-1.317 0-.727.58-1.318 1.291-1.318z"/>
        <path fill="#0E3757" d="M68.693 21.396l.028.083c.036 2.014-.618 3.652-1.962 4.915-1.345 1.262-3.165 1.893-5.462 1.893-2.324 0-4.213-.781-5.667-2.345-1.454-1.563-2.18-3.561-2.18-5.995V16.16c0-2.424.717-4.423 2.153-5.995 1.435-1.572 3.301-2.358 5.598-2.358 2.352 0 4.204.617 5.558 1.852 1.353 1.235 2.012 2.896 1.975 4.984l-.027.082h-3.213c0-1.34-.362-2.384-1.087-3.131-.724-.748-1.793-1.121-3.206-1.121-1.358 0-2.436.537-3.233 1.613-.798 1.075-1.197 2.424-1.197 4.047v3.814c0 1.64.408 2.999 1.224 4.074.816 1.076 1.916 1.614 3.302 1.614 1.376 0 2.42-.37 3.13-1.108.712-.738 1.067-1.782 1.067-3.13h3.2zm2.243-.93c0-2.196.601-4 1.804-5.413 1.222-1.413 2.876-2.12 4.963-2.12 2.124 0 3.787.707 4.99 2.12 1.213 1.403 1.819 3.208 1.819 5.414v.287c0 2.224-.606 4.038-1.819 5.441-1.203 1.395-2.857 2.092-4.963 2.092-2.114 0-3.778-.702-4.99-2.105-1.203-1.404-1.804-3.213-1.804-5.428v-.287zm3.322.288c0 1.44.282 2.616.847 3.527.556.903 1.431 1.354 2.625 1.354 1.158 0 2.024-.451 2.598-1.354.583-.911.875-2.087.875-3.527v-.287c0-1.413-.292-2.575-.875-3.487-.574-.92-1.45-1.38-2.625-1.38-1.157 0-2.023.46-2.598 1.38-.565.921-.847 2.083-.847 3.487v.287zm12.537.055c0-2.361.506-4.264 1.517-5.708 1.012-1.445 2.434-2.167 4.266-2.167.802 0 1.52.161 2.153.485a4.873 4.873 0 0 1 1.648 1.388V6.672H99.7V28h-2.789l-.328-1.832c-.474.693-1.044 1.219-1.709 1.58-.665.36-1.44.54-2.324.54-1.814 0-3.227-.662-4.239-1.983-1.011-1.322-1.517-3.058-1.517-5.21v-.286zm3.322.287c0 1.367.262 2.456.786 3.267.524.811 1.356 1.217 2.495 1.217.702 0 1.297-.15 1.785-.451.487-.3.886-.73 1.196-1.285V17.39a3.498 3.498 0 0 0-1.203-1.279c-.492-.305-1.076-.458-1.75-.458-1.13 0-1.964.477-2.502 1.429-.538.952-.807 2.194-.807 3.726v.287zm19.496 7.191c-2.096 0-3.766-.686-5.01-2.058-1.245-1.371-1.867-3.133-1.867-5.284v-.547c0-2.15.618-3.935 1.853-5.352 1.235-1.417 2.782-2.122 4.641-2.112 1.997 0 3.526.603 4.587 1.811 1.062 1.208 1.593 2.828 1.593 4.86v1.956h-9.228l-.028.068c.055 1.176.4 2.137 1.033 2.885.633.747 1.51 1.12 2.631 1.12.894 0 1.66-.109 2.297-.327a7.525 7.525 0 0 0 1.846-.944l1.066 2.174c-.556.492-1.294.907-2.215 1.244-.92.337-1.986.506-3.199.506zM109.23 15.6c-.82 0-1.494.325-2.023.977-.529.652-.857 1.479-.984 2.482l.027.068h5.865v-.342c0-.939-.239-1.704-.718-2.297-.478-.592-1.2-.888-2.167-.888z"/>
        <path fill="#0E3757" d="M59.762 35.611h-2.578V43H55.76v-7.389h-2.578V34.47h6.58v1.142zm18.27 3.551h-3.733v2.701h4.33V43h-5.754v-8.531h5.713v1.142h-4.29v2.409h3.733v1.142zm18.421 1.647c0-.356-.132-.647-.395-.873-.264-.227-.73-.43-1.398-.61-.953-.25-1.686-.58-2.2-.993-.514-.412-.77-.952-.77-1.62 0-.688.284-1.254.852-1.7.568-.445 1.302-.667 2.2-.667.938 0 1.69.252 2.259.756.568.503.843 1.109.823 1.816l-.011.035h-1.366c0-.437-.148-.792-.445-1.063-.297-.272-.72-.408-1.272-.408-.52 0-.918.114-1.198.34a1.08 1.08 0 0 0-.419.88c0 .323.152.593.454.808.303.215.804.418 1.503.61.918.245 1.616.585 2.092 1.019.477.433.715.986.715 1.658 0 .71-.284 1.276-.853 1.696-.568.42-1.315.63-2.24.63-.891 0-1.673-.235-2.345-.706-.671-.47-.998-1.116-.978-1.937l.012-.035h1.37c0 .52.18.908.54 1.163.36.256.826.384 1.4.384.528 0 .938-.106 1.23-.32.294-.212.44-.5.44-.863zm20.754-5.198h-2.578V43h-1.424v-7.389h-2.578V34.47h6.58v1.142z" opacity=".5"/>
    </g>
</svg>
